<svg width="741" height="110" viewBox="0 0 741 110" fill="none" xmlns="http://www.w3.org/2000/svg">
<path d="M1.73599 50.936C1.73599 47.864 2.75999 44.9199 4.80799 42.104C6.94132 39.288 10.312 36.8133 14.92 34.68C19.528 32.4613 25.4587 30.712 32.712 29.432C39.9653 28.1519 48.712 27.5119 58.952 27.5119C69.7893 27.5119 78.9627 28.0666 86.472 29.1759C94.0667 30.2853 100.211 31.9493 104.904 34.168C109.597 36.3013 112.925 38.9466 114.888 42.104C116.936 45.176 117.917 48.76 117.832 52.856L97.992 54.392C98.1627 52.6 97.5653 51.0213 96.2 49.656C94.8347 48.2906 92.616 47.1813 89.544 46.3279C86.472 45.3893 82.4613 44.7066 77.512 44.28C72.5627 43.768 66.5893 43.512 59.592 43.512C52.936 43.512 47.3467 43.8533 42.824 44.5359C38.3013 45.2186 34.632 46.072 31.816 47.096C29 48.12 26.952 49.2293 25.672 50.424C24.4773 51.5333 23.88 52.6 23.88 53.624C23.88 55.3306 25.2453 56.6106 27.976 57.464C30.7067 58.232 34.2907 58.8293 38.728 59.256C43.1653 59.6826 48.2 60.024 53.832 60.28C59.5493 60.4506 65.352 60.7493 71.24 61.176C77.2133 61.6026 83.016 62.2853 88.648 63.224C94.3653 64.0773 99.4427 65.3573 103.88 67.064C108.317 68.6853 111.901 70.9039 114.632 73.7199C117.363 76.4506 118.728 79.9066 118.728 84.088C118.728 87.672 117.619 91 115.4 94.072C113.181 97.144 109.725 99.832 105.032 102.136C100.339 104.44 94.28 106.232 86.856 107.512C79.5173 108.877 70.6853 109.56 60.36 109.56C49.5227 109.56 40.2213 108.92 32.456 107.64C24.6907 106.36 18.3333 104.525 13.384 102.136C8.51999 99.7466 4.97866 96.8453 2.75999 93.432C0.626656 90.0186 -0.226677 86.2213 0.199989 82.04L18.888 80.76C18.5467 85.0266 21.7467 88.2266 28.488 90.36C35.3147 92.4933 46.1093 93.56 60.872 93.56C67.6987 93.56 73.4587 93.2186 78.152 92.536C82.8453 91.768 86.6427 90.8293 89.544 89.72C92.5307 88.6106 94.664 87.416 95.944 86.136C97.224 84.7706 97.864 83.4906 97.864 82.296C97.864 80.504 96.456 79.1813 93.64 78.3279C90.9093 77.3893 87.2827 76.7066 82.76 76.28C78.3227 75.8533 73.2027 75.5546 67.4 75.3839C61.6827 75.128 55.7947 74.7866 49.736 74.3599C43.7627 73.9333 37.8747 73.2933 32.072 72.4399C26.3547 71.5866 21.2347 70.3066 16.712 68.6C12.2747 66.808 8.64799 64.504 5.83199 61.688C3.10132 58.872 1.73599 55.288 1.73599 50.936Z" fill="black"/>
<path d="M185.595 27.5119C194.64 27.5119 202.79 28.4079 210.043 30.2C217.296 31.9066 223.398 34.5519 228.347 38.1359C233.382 41.6346 237.222 46.072 239.867 51.448C242.598 56.7386 243.963 62.9679 243.963 70.1359V74.872H148.347C148.688 80.4186 152.016 84.9413 158.331 88.4399C164.646 91.8533 173.776 93.56 185.723 93.56C191.44 93.56 196.475 93.2613 200.827 92.664C205.264 92.0666 208.976 91.2986 211.963 90.36C215.035 89.336 217.382 88.2693 219.003 87.16C220.71 85.9653 221.691 84.7706 221.947 83.576H243.323C242.128 87.672 239.952 91.3413 236.795 94.584C233.638 97.7413 229.584 100.472 224.635 102.776C219.771 104.995 214.054 106.659 207.483 107.768C200.912 108.963 193.616 109.56 185.595 109.56C176.55 109.56 168.4 108.707 161.147 107C153.894 105.293 147.75 102.733 142.715 99.32C137.68 95.8213 133.798 91.5546 131.067 86.52C128.336 81.4 126.971 75.4266 126.971 68.6C126.971 61.8586 128.336 55.928 131.067 50.808C133.798 45.6026 137.68 41.2933 142.715 37.88C147.75 34.4666 153.894 31.9066 161.147 30.2C168.4 28.4079 176.55 27.5119 185.595 27.5119ZM185.723 43.512C179.152 43.512 173.52 43.9813 168.827 44.92C164.219 45.7733 160.422 47.0106 157.435 48.632C154.448 50.168 152.187 52.0026 150.651 54.136C149.2 56.2693 148.432 58.5306 148.347 60.92V61.944H222.587V59.384C222.587 54.8613 219.515 51.1066 213.371 48.12C207.312 45.048 198.096 43.512 185.723 43.512Z" fill="black"/>
<path d="M354.496 107H338.496L337.216 95.224C333.973 99.6613 328.981 103.16 322.24 105.72C315.584 108.28 306.923 109.56 296.256 109.56C287.893 109.56 280.811 108.92 275.008 107.64C269.205 106.445 264.469 104.781 260.8 102.648C257.131 100.429 254.485 97.8693 252.864 94.968C251.243 92.0666 250.432 88.9093 250.432 85.4959C250.432 80.6319 251.669 76.664 254.144 73.592C256.619 70.52 259.861 68.088 263.872 66.296C267.883 64.504 272.448 63.224 277.568 62.456C282.773 61.688 288.064 61.2186 293.44 61.048C298.901 60.792 304.192 60.7066 309.312 60.792C314.517 60.8773 319.125 60.8773 323.136 60.792C327.232 60.7066 330.517 60.408 332.992 59.896C335.467 59.2986 336.704 58.232 336.704 56.696C336.704 52.344 333.717 49.0586 327.744 46.84C321.771 44.6213 313.451 43.512 302.784 43.512C296.128 43.512 290.581 43.896 286.144 44.664C281.792 45.3466 278.336 46.2853 275.776 47.4799C273.216 48.6746 271.424 50.0826 270.4 51.704C269.461 53.24 269.035 54.8613 269.12 56.568L251.584 54.648C251.157 50.296 251.627 46.456 252.992 43.128C254.357 39.7146 256.96 36.8559 260.8 34.5519C264.725 32.2479 270.059 30.4986 276.8 29.3039C283.541 28.1093 292.075 27.5119 302.4 27.5119C312.896 27.5119 321.515 28.2373 328.256 29.688C334.997 31.0533 340.288 33.016 344.128 35.576C348.053 38.136 350.741 41.208 352.192 44.792C353.728 48.3759 354.496 52.344 354.496 56.696V107ZM297.664 93.56C304.149 93.56 309.824 93.0906 314.688 92.152C319.552 91.2133 323.563 89.9759 326.72 88.4399C329.963 86.8186 332.395 84.984 334.016 82.936C335.637 80.888 336.533 78.7973 336.704 76.6639V67.576C333.888 69.7946 330.219 71.3733 325.696 72.312C321.259 73.2506 316.48 73.9333 311.36 74.3599C306.325 74.7013 301.248 74.9573 296.128 75.128C291.008 75.2133 286.357 75.5119 282.176 76.0239C278.08 76.5359 274.709 77.3893 272.064 78.584C269.504 79.7786 268.224 81.6559 268.224 84.216C268.224 85.4106 268.608 86.5626 269.376 87.672C270.229 88.7813 271.723 89.8053 273.856 90.7439C276.075 91.5973 279.061 92.28 282.816 92.792C286.656 93.304 291.605 93.56 297.664 93.56Z" fill="black"/>
<path d="M363.48 107V3.31995H384.856V43.512C386.989 40.952 389.549 38.6906 392.536 36.728C395.608 34.68 398.979 32.9733 402.648 31.6079C406.403 30.2426 410.371 29.2186 414.552 28.5359C418.819 27.8533 423.213 27.5119 427.736 27.5119C435.928 27.5119 443.267 28.4933 449.752 30.4559C456.237 32.3333 461.741 35.0639 466.264 38.6479C470.787 42.1466 474.243 46.456 476.632 51.576C479.021 56.6106 480.216 62.2853 480.216 68.6C480.216 74.9146 478.851 80.5893 476.12 85.624C473.389 90.6586 469.635 94.968 464.856 98.552C460.163 102.051 454.616 104.781 448.216 106.744C441.816 108.621 434.989 109.56 427.736 109.56C423.213 109.56 418.776 109.176 414.424 108.408C410.072 107.725 405.976 106.701 402.136 105.336C398.296 103.885 394.797 102.093 391.64 99.96C388.483 97.7413 385.837 95.1813 383.704 92.28L380.76 107H363.48ZM422.36 43.512C418.179 43.512 413.869 43.896 409.432 44.664C404.995 45.432 400.941 46.584 397.272 48.12C393.688 49.656 390.701 51.576 388.312 53.88C386.008 56.184 384.856 58.8293 384.856 61.816V75.3839C384.856 78.4559 386.008 81.144 388.312 83.448C390.701 85.6666 393.688 87.544 397.272 89.08C400.941 90.616 404.995 91.768 409.432 92.536C413.869 93.2186 418.179 93.56 422.36 93.56C427.565 93.56 432.387 93.0053 436.824 91.896C441.261 90.7013 445.101 89.0373 448.344 86.904C451.672 84.6853 454.232 82.0399 456.024 78.9679C457.901 75.8959 458.84 72.44 458.84 68.6C458.84 64.76 457.901 61.304 456.024 58.232C454.232 55.0746 451.672 52.4293 448.344 50.296C445.101 48.0773 441.261 46.4133 436.824 45.304C432.387 44.1093 427.565 43.512 422.36 43.512Z" fill="black"/>
<path d="M494.532 107V30.072C494.532 30.072 500.796 32.4848 505.156 32.5C509.563 32.5153 515.908 30.072 515.908 30.072V107H494.532Z" fill="black"/>
<path d="M538.633 107V30.072H553.353L556.425 40.824C558.388 36.8133 561.374 33.4426 565.385 30.712C569.481 27.9813 574.26 26.232 579.721 25.464C585.268 24.6106 591.326 24.824 597.897 26.104C604.468 27.2986 611.294 29.8586 618.377 33.784V53.752C608.99 48.12 600.67 44.664 593.417 43.384C586.164 42.0186 580.062 42.1466 575.113 43.768C570.164 45.3893 566.409 48.1626 563.849 52.088C561.289 55.928 560.009 60.2373 560.009 65.016V107H538.633Z" fill="black"/>
<path d="M624.066 68.6C624.066 62.2853 625.261 56.6106 627.65 51.576C630.039 46.456 633.495 42.1466 638.018 38.6479C642.541 35.0639 648.045 32.3333 654.53 30.4559C661.015 28.4933 668.354 27.5119 676.546 27.5119C685.591 27.5119 693.911 28.8773 701.506 31.6079C709.101 34.3386 715.074 38.3066 719.426 43.512V3.31995H740.802V107H723.394L720.45 92.408C718.317 95.3093 715.671 97.8266 712.514 99.96C709.357 102.093 705.858 103.885 702.018 105.336C698.178 106.701 694.082 107.725 689.73 108.408C685.378 109.176 680.983 109.56 676.546 109.56C669.293 109.56 662.466 108.621 656.066 106.744C649.666 104.781 644.077 102.051 639.298 98.552C634.605 94.968 630.893 90.6586 628.162 85.624C625.431 80.5893 624.066 74.9146 624.066 68.6ZM681.922 93.56C686.103 93.56 690.37 93.2186 694.722 92.536C699.159 91.768 703.213 90.616 706.882 89.08C710.551 87.544 713.538 85.6666 715.842 83.448C718.231 81.144 719.426 78.4559 719.426 75.3839V61.816C719.426 58.8293 718.231 56.184 715.842 53.88C713.538 51.576 710.551 49.656 706.882 48.12C703.213 46.584 699.159 45.432 694.722 44.664C690.37 43.896 686.103 43.512 681.922 43.512C676.717 43.512 671.895 44.1093 667.458 45.304C663.021 46.4133 659.138 48.0773 655.81 50.296C652.567 52.4293 650.007 55.0746 648.13 58.232C646.338 61.304 645.442 64.76 645.442 68.6C645.442 72.44 646.338 75.8959 648.13 78.9679C650.007 82.0399 652.567 84.6853 655.81 86.904C659.138 89.0373 663.021 90.7013 667.458 91.896C671.895 93.0053 676.717 93.56 681.922 93.56Z" fill="black"/>
<path d="M496.324 4.21594C494.191 6.34927 493.124 9.25061 493.124 12.9199C493.124 16.6746 494.191 19.6613 496.324 21.8799C498.543 24.0133 501.487 25.0799 505.156 25.0799C508.825 25.0799 511.769 24.0133 513.988 21.8799C516.207 19.6613 517.316 16.6746 517.316 12.9199C517.316 9.25061 516.207 6.34927 513.988 4.21594C511.769 1.99727 508.825 0.887939 505.156 0.887939C501.487 0.887939 498.543 1.99727 496.324 4.21594Z" fill="#FEB240"/>
</svg>
