<svg width="90" height="93" viewBox="0 0 90 93" fill="none" xmlns="http://www.w3.org/2000/svg">
<path d="M48.7261 9.74522L57.9927 38.2648H87.9799L63.7197 55.8908L72.9863 84.4104L48.7261 66.7843L24.4659 84.4104L33.7325 55.8908L9.4723 38.2648H39.4595L48.7261 9.74522Z" fill="#FEE440"/>
<path d="M41.2739 9.7082L47.6873 29.4466L48.3608 31.5196H50.5404H71.2946L54.5041 43.7186L52.7408 44.9997L53.4143 47.0727L59.8277 66.8111L43.0372 54.6121L41.2739 53.3309L39.5105 54.6121L22.72 66.8111L29.1334 47.0727L29.807 44.9997L28.0436 43.7186L11.2531 31.5196H32.0073H34.1869L34.8605 29.4466L41.2739 9.7082Z" stroke="black" stroke-width="6"/>
</svg>
