<svg width="472" height="304" viewBox="0 0 472 304" fill="none" xmlns="http://www.w3.org/2000/svg">
<path d="M140.235 91.9769L51.9577 300.069" stroke="#feb24040" stroke-width="6" stroke-linecap="round" stroke-linejoin="round"/>
<path d="M158.888 86.1071L70.6115 294.199" stroke="#feb24040" stroke-width="6" stroke-linecap="round" stroke-linejoin="round"/>
<path d="M177.542 80.2374L89.2653 288.329" stroke="#feb24040" stroke-width="6" stroke-linecap="round" stroke-linejoin="round"/>
<path d="M196.196 74.3677L107.919 282.46" stroke="#feb24040" stroke-width="6" stroke-linecap="round" stroke-linejoin="round"/>
<path d="M214.85 68.498L126.573 276.59" stroke="#feb24040" stroke-width="6" stroke-linecap="round" stroke-linejoin="round"/>
<path d="M233.504 62.6283L145.227 270.72" stroke="#feb24040" stroke-width="6" stroke-linecap="round" stroke-linejoin="round"/>
<path d="M252.158 56.7586L163.881 264.851" stroke="#feb24040" stroke-width="6" stroke-linecap="round" stroke-linejoin="round"/>
<path d="M270.812 50.8888L182.535 258.981" stroke="#feb24040" stroke-width="6" stroke-linecap="round" stroke-linejoin="round"/>
<path d="M289.465 45.0191L201.188 253.111" stroke="#feb24040" stroke-width="6" stroke-linecap="round" stroke-linejoin="round"/>
<path d="M308.119 39.1494L219.842 247.241" stroke="#feb24040" stroke-width="6" stroke-linecap="round" stroke-linejoin="round"/>
<path d="M326.773 33.2796L238.496 241.372" stroke="#feb24040" stroke-width="6" stroke-linecap="round" stroke-linejoin="round"/>
<path d="M345.427 27.4099L257.15 235.502" stroke="#feb24040" stroke-width="6" stroke-linecap="round" stroke-linejoin="round"/>
<path d="M364.081 21.5402L275.804 229.632" stroke="#feb24040" stroke-width="6" stroke-linecap="round" stroke-linejoin="round"/>
<path d="M382.735 15.6705L294.458 223.763" stroke="#feb24040" stroke-width="6" stroke-linecap="round" stroke-linejoin="round"/>
<path d="M401.388 9.80074L313.112 217.893" stroke="#feb24040" stroke-width="6" stroke-linecap="round" stroke-linejoin="round"/>
<path d="M420.043 3.93105L331.766 212.023" stroke="#feb24040" stroke-width="6" stroke-linecap="round" stroke-linejoin="round"/>
</svg>
