<svg width="158" height="85" viewBox="0 0 158 85" fill="none" xmlns="http://www.w3.org/2000/svg">
<path d="M124.553 3.99776C124.493 3.99904 124.432 4.00475 124.371 4.00773C124.36 4.00826 124.35 4.00714 124.339 4.00773C124.079 4.0218 123.813 4.05283 123.543 4.0974C123.541 4.09775 123.538 4.09705 123.536 4.0974C118.489 4.93303 111.736 10.9535 109.286 17.8989C108.178 21.081 108.361 23.9218 109.467 26.0252C109.473 26.0348 109.478 26.0436 109.483 26.0531C109.526 26.1326 109.568 26.2109 109.613 26.2882C109.618 26.2979 109.626 26.3085 109.631 26.3181C109.676 26.3938 109.72 26.4677 109.767 26.5413C109.775 26.5535 109.783 26.5671 109.791 26.5792C109.837 26.6507 109.884 26.721 109.933 26.7904C109.941 26.8025 109.95 26.8142 109.959 26.8263C110.003 26.8887 110.048 26.9509 110.094 27.0116C110.113 27.0362 110.131 27.059 110.15 27.0833C110.19 27.1336 110.23 27.1838 110.27 27.2328C110.295 27.2628 110.321 27.2929 110.346 27.3225C110.38 27.3626 110.415 27.4028 110.45 27.442C110.485 27.4808 110.52 27.5177 110.556 27.5556C110.583 27.5844 110.61 27.613 110.637 27.6413C110.687 27.6927 110.738 27.745 110.789 27.7947C110.795 27.801 110.801 27.8065 110.807 27.8127L110.809 27.8147C110.815 27.8205 110.823 27.8268 110.829 27.8326C110.882 27.8832 110.936 27.9314 110.991 27.9801C111.014 28.0002 111.036 28.0201 111.059 28.0399C111.111 28.0852 111.165 28.1297 111.219 28.1734C111.237 28.1882 111.256 28.2026 111.274 28.2172C111.417 28.33 111.564 28.4388 111.716 28.5401C111.72 28.5426 111.722 28.5455 111.726 28.548C111.727 28.5486 111.729 28.5474 111.73 28.548L111.736 28.552C111.98 28.7136 112.234 28.8615 112.501 28.9924C114.838 30.14 118.032 30.0766 121.578 28.2611L121.556 29.5643L121.536 30.5387L121.319 30.5248C119.454 30.2371 117.637 30.707 116.079 31.7443H116.077C115.818 31.917 115.566 32.105 115.322 32.3083L115.32 32.3103C115.199 32.4117 115.078 32.5165 114.961 32.6252C114.955 32.6308 114.949 32.6374 114.943 32.6431C114.831 32.747 114.721 32.8536 114.613 32.9639C114.612 32.9654 114.61 32.9684 114.609 32.9699C114.497 33.0846 114.387 33.2012 114.28 33.3226C114.278 33.3254 114.274 33.3298 114.272 33.3326C114.165 33.4532 114.062 33.5763 113.96 33.7033C113.955 33.7093 113.951 33.7152 113.946 33.7212C113.847 33.8454 113.751 33.9738 113.657 34.1038C113.651 34.1124 113.645 34.1192 113.639 34.1277C113.553 34.2473 113.469 34.3701 113.387 34.4944C113.373 34.5154 113.359 34.537 113.345 34.5582C113.268 34.6774 113.193 34.7975 113.12 34.9208C113.103 34.9483 113.086 34.9769 113.07 35.0045C113 35.1234 112.934 35.2446 112.868 35.3672C112.849 35.4022 112.831 35.4376 112.812 35.4728C112.755 35.581 112.7 35.6907 112.646 35.8016C112.618 35.8612 112.59 35.9206 112.562 35.981C112.517 36.0788 112.474 36.178 112.431 36.2779C112.4 36.3485 112.37 36.4195 112.341 36.4911C112.303 36.5833 112.266 36.6763 112.231 36.7701C112.203 36.8448 112.176 36.9195 112.149 36.9953C112.113 37.0957 112.079 37.196 112.045 37.2981C112.023 37.366 112 37.4349 111.979 37.5034C111.946 37.6104 111.916 37.7195 111.885 37.8282C111.866 37.8975 111.848 37.9655 111.83 38.0354C111.8 38.1483 111.77 38.2616 111.744 38.3762C111.727 38.4496 111.712 38.5252 111.696 38.5994C111.674 38.6991 111.653 38.7993 111.634 38.9003C111.613 39.0078 111.596 39.1162 111.578 39.2251C111.566 39.2954 111.554 39.3655 111.544 39.4363C111.527 39.552 111.51 39.6679 111.496 39.785C111.486 39.8668 111.478 39.9478 111.47 40.0302C111.458 40.1474 111.445 40.2663 111.436 40.3849C111.43 40.4624 111.425 40.5399 111.42 40.618C111.416 40.6795 111.411 40.7415 111.408 40.8033C111.405 40.8717 111.404 40.9367 111.402 41.0046C111.4 41.0584 111.4 41.1125 111.398 41.166C111.394 41.3096 111.392 41.4511 111.392 41.5924C111.392 41.6292 111.391 41.6674 111.392 41.704C111.394 41.8465 111.398 41.9864 111.404 42.1265C111.406 42.1798 111.408 42.233 111.41 42.2859C111.416 42.4105 111.424 42.534 111.434 42.6565C111.438 42.7062 111.443 42.7566 111.448 42.806C111.46 42.944 111.473 43.0812 111.49 43.2165C111.494 43.2525 111.499 43.2883 111.504 43.3241C111.522 43.4662 111.543 43.6057 111.566 43.7446C111.569 43.7635 111.571 43.7834 111.574 43.8024C111.598 43.9459 111.623 44.0868 111.652 44.2268C111.659 44.2617 111.666 44.2957 111.674 44.3304C111.736 44.6245 111.809 44.9118 111.889 45.1893C111.896 45.215 111.904 45.2394 111.911 45.265C111.915 45.2773 111.919 45.2906 111.923 45.3029C111.164 47.7919 110.042 49.853 108.908 49.7626C107.581 49.6805 108.355 45.0678 110.282 36.7103C111.16 32.8713 110.085 32.0551 103.489 33.522C99.5327 34.4106 98.02 32.3423 98.02 32.3423C98.02 32.3423 97.8488 32.3651 97.7803 32.5057C96.8977 34.0698 97.2239 36.7822 98.621 38.3423C98.6778 40.4855 98.5375 43.0725 98.0799 45.3308H98.0719C97.9174 46.0504 97.7267 46.7674 97.5108 47.451C97.4074 47.7469 97.2975 48.0316 97.1773 48.2979C97.1773 48.2979 97.1807 48.3228 97.2053 48.3517C96.4748 50.32 95.5221 51.7924 94.5596 51.7154C93.2334 51.6336 93.2223 47.6976 93.7053 43.2124C94.4036 36.7722 95.8717 34.6915 95.8717 34.6915C91.9585 32.6863 87.4046 35.93 86.8844 41.4269C86.1882 48.5229 88.8861 54.1513 92.2317 54.5708C95.3122 54.9273 97.6311 51.9828 98.8688 48.3117C98.9619 48.1724 99.0503 48.0066 99.1284 47.8115C100.111 45.0522 100.638 42.1815 100.846 39.5278C101.38 39.5864 101.944 39.5523 102.535 39.3844L102.912 39.2469C101.3 47.3427 103.235 52.1983 106.624 52.612C109.403 52.9336 111.538 50.5983 112.83 47.4269C113.235 48.1266 113.708 48.7229 114.232 49.2005C114.233 49.2014 114.235 49.2016 114.236 49.2025C114.69 49.6168 115.181 49.9411 115.695 50.163C115.705 50.167 115.714 50.1709 115.723 50.1749C115.818 50.2151 115.915 50.2514 116.011 50.2845C116.021 50.2879 116.029 50.2913 116.039 50.2945C116.136 50.3271 116.234 50.3569 116.332 50.3822C116.34 50.3844 116.348 50.3862 116.356 50.3882C116.454 50.413 116.554 50.4327 116.654 50.45C116.664 50.4519 116.673 50.4543 116.684 50.456C116.773 50.471 116.863 50.4831 116.953 50.4919C116.982 50.4947 117.011 50.4977 117.039 50.4999C117.119 50.506 117.2 50.5086 117.281 50.5099C117.315 50.5104 117.348 50.5102 117.383 50.5099C117.452 50.5091 117.521 50.5082 117.59 50.5039C117.634 50.5011 117.678 50.4961 117.722 50.4919C117.792 50.4851 117.863 50.4766 117.934 50.466C117.975 50.4598 118.016 50.4536 118.057 50.4461C118.092 50.4397 118.126 50.4354 118.161 50.4281C118.201 50.42 118.238 50.4093 118.277 50.4002C118.298 50.3953 118.318 50.3914 118.339 50.3863C118.413 50.3678 118.487 50.3463 118.559 50.3245C118.58 50.318 118.601 50.3114 118.622 50.3046C118.69 50.2827 118.757 50.2596 118.822 50.2348C118.845 50.2263 118.868 50.2179 118.89 50.2089C118.954 50.1834 119.016 50.1575 119.078 50.1292C119.098 50.12 119.118 50.1108 119.138 50.1013C119.194 50.0743 119.249 50.0449 119.303 50.0156C119.334 49.999 119.365 49.9832 119.395 49.9658C119.439 49.9407 119.481 49.9147 119.523 49.8881C119.558 49.8658 119.594 49.8417 119.629 49.8184C119.664 49.7947 119.699 49.7713 119.733 49.7466C119.775 49.7163 119.814 49.6848 119.854 49.653C119.877 49.635 119.9 49.6176 119.922 49.5992C119.969 49.5608 120.015 49.5219 120.06 49.4816C120.077 49.4667 120.094 49.4509 120.11 49.4358C120.165 49.3841 120.219 49.3309 120.272 49.2763L120.274 49.2743C120.333 49.2131 120.39 49.1496 120.445 49.085L120.448 49.083C120.503 49.0183 120.555 48.9516 120.607 48.8837L120.609 48.8816C120.819 48.6071 120.999 48.307 121.158 47.9889C121.159 47.988 121.159 47.9859 121.16 47.9849C121.837 46.6317 122.103 44.9509 122.299 43.4854C122.561 45.2353 123.195 46.6827 124.054 47.7159C124.073 47.7388 124.091 47.7612 124.11 47.7837C124.135 47.8128 124.16 47.8409 124.185 47.8694C124.22 47.9084 124.256 47.9472 124.291 47.9849C124.309 48.004 124.327 48.0239 124.345 48.0427C124.384 48.0835 124.423 48.1231 124.463 48.1623C124.471 48.1699 124.479 48.1766 124.487 48.1842L124.489 48.1862C124.495 48.1917 124.499 48.1967 124.505 48.2022C124.551 48.2459 124.596 48.2881 124.643 48.3297C124.648 48.3345 124.653 48.3409 124.659 48.3457H124.661C124.665 48.3489 124.669 48.3524 124.673 48.3557C125.369 48.9696 126.169 49.3488 127.017 49.4457C130.535 49.8417 133.059 46.473 134.131 42.1264C134.503 40.6754 133.688 40.2168 132.991 40.5741L132.919 40.5861L132.909 40.5881H132.907C132.893 40.651 132.879 40.7148 132.865 40.7774C132.848 40.854 132.829 40.9285 132.811 41.0046C132.784 41.1175 132.758 41.2298 132.729 41.3414C132.702 41.4471 132.674 41.5539 132.645 41.6582C132.62 41.7508 132.594 41.8419 132.568 41.9332C132.543 42.0186 132.519 42.1041 132.494 42.1883C132.461 42.2955 132.426 42.4 132.392 42.5051C132.364 42.5895 132.338 42.6734 132.31 42.7562C132.274 42.8614 132.236 42.9665 132.198 43.069C132.17 43.1456 132.141 43.2212 132.112 43.2962C132.079 43.3826 132.046 43.4672 132.012 43.5513C131.973 43.6474 131.935 43.7413 131.894 43.8343C131.865 43.9034 131.833 43.9723 131.803 44.0395C131.758 44.1389 131.711 44.2374 131.665 44.3324C131.641 44.3819 131.618 44.4296 131.593 44.4779C131.541 44.5797 131.488 44.6788 131.435 44.7748C131.41 44.8201 131.385 44.8644 131.359 44.9083C131.303 45.0059 131.245 45.1008 131.188 45.1913C131.168 45.2227 131.148 45.2544 131.128 45.285C131.065 45.3797 131.002 45.4701 130.938 45.556C130.921 45.5793 130.904 45.601 130.886 45.6237C130.819 45.7113 130.751 45.7939 130.683 45.8708C130.653 45.9037 130.624 45.9376 130.595 45.9684C130.589 45.9754 130.581 45.9816 130.575 45.9884C130.55 46.0138 130.524 46.0382 130.499 46.0621C130.476 46.084 130.454 46.1052 130.431 46.1259C130.409 46.146 130.386 46.1667 130.363 46.1857C130.341 46.2047 130.318 46.2217 130.295 46.2395C130.282 46.2502 130.269 46.263 130.255 46.2733C130.225 46.296 130.194 46.3167 130.163 46.3371C130.147 46.3481 130.132 46.3586 130.116 46.369C130.088 46.3866 130.06 46.4032 130.032 46.4188C130.017 46.4269 130.002 46.4332 129.988 46.4407C129.954 46.458 129.92 46.4762 129.886 46.4905C129.882 46.4922 129.88 46.4929 129.876 46.4945C129.873 46.4956 129.868 46.4974 129.865 46.4985C129.829 46.5135 129.792 46.5269 129.756 46.5383C129.748 46.5407 129.741 46.5422 129.734 46.5444C129.694 46.556 129.654 46.5651 129.614 46.5723C129.613 46.5725 129.611 46.5741 129.61 46.5743H129.608C129.564 46.5818 129.519 46.5861 129.476 46.5882C129.436 46.5902 129.398 46.5889 129.358 46.5862C129.353 46.5859 129.347 46.5866 129.342 46.5862C129.339 46.586 129.337 46.5864 129.334 46.5862C129.296 46.5833 129.26 46.5771 129.224 46.5683C129.186 46.5587 129.147 46.5467 129.112 46.5304C129.077 46.5141 129.045 46.4935 129.012 46.4706C128.98 46.4479 128.95 46.4219 128.921 46.3929H128.919C128.86 46.3344 128.807 46.2623 128.759 46.1797C128.735 46.1384 128.711 46.0931 128.689 46.0462C128.667 45.9992 128.647 45.9492 128.627 45.8967C128.626 45.8942 128.624 45.8914 128.623 45.8888C128.585 45.7854 128.553 45.6712 128.523 45.548C128.523 45.5465 128.521 45.5456 128.521 45.544C128.491 45.4188 128.466 45.2836 128.443 45.1395C128.443 45.1362 128.442 45.1328 128.441 45.1295C128.421 45.0009 128.404 44.8632 128.389 44.721C128.385 44.6838 128.381 44.6455 128.377 44.6074C128.367 44.4989 128.359 44.386 128.351 44.2707C128.346 44.1865 128.34 44.1011 128.335 44.0136C128.331 43.9299 128.326 43.8452 128.323 43.7585C128.319 43.6449 128.316 43.5282 128.313 43.4098C128.311 43.3413 128.31 43.2726 128.309 43.2026C128.307 43.0631 128.306 42.9172 128.305 42.7721C128.303 42.526 128.303 42.271 128.305 42.0109C128.311 41.0207 128.334 39.9443 128.331 38.8465C128.332 38.6839 128.333 38.4649 128.335 38.2726C128.338 37.9253 128.344 37.5179 128.351 37.079C128.358 36.6099 128.366 36.0992 128.377 35.5426C128.389 34.9428 128.404 34.3031 128.421 33.6176C128.481 31.235 128.57 28.415 128.696 25.4873C128.705 25.2969 128.714 25.1065 128.722 24.9154C128.735 24.6247 128.749 24.3342 128.762 24.0426C130.492 23.3918 132.244 23.0555 133.97 22.9407C134.167 22.9276 134.363 22.9182 134.559 22.9108C134.6 22.9092 134.642 22.906 134.683 22.9047C134.838 22.8997 134.992 22.8984 135.146 22.8968C135.232 22.8959 135.318 22.8945 135.404 22.8947C135.521 22.8948 135.638 22.8968 135.755 22.8987C135.878 22.9009 136 22.9026 136.122 22.9067C136.177 22.9084 136.232 22.9125 136.286 22.9146C136.475 22.9222 136.664 22.9306 136.851 22.9425C136.856 22.9428 136.86 22.9423 136.865 22.9425C137.597 22.9894 138.32 23.0686 139.03 23.1717C140.578 23.416 141.756 23.8489 142.64 24.3155C142.684 24.3391 142.728 24.3635 142.772 24.3873C142.896 24.4559 143.016 24.5252 143.129 24.5945C143.151 24.608 143.171 24.6208 143.193 24.6343C143.323 24.7159 143.447 24.7967 143.56 24.8775C143.563 24.8796 143.565 24.8813 143.568 24.8835C144.608 25.6246 144.984 26.2983 144.984 26.2983L144.986 26.2963C144.994 26.2884 145.002 26.2804 145.01 26.2723C145.058 26.2242 145.102 26.1735 145.148 26.1209C145.17 26.0953 145.194 26.0698 145.216 26.0432C145.26 25.9882 145.303 25.931 145.346 25.8718C145.36 25.8518 145.373 25.8305 145.387 25.81C145.43 25.7485 145.471 25.6862 145.511 25.6207C145.527 25.5945 145.544 25.5678 145.559 25.541C145.594 25.4813 145.626 25.4203 145.659 25.3577C145.682 25.3137 145.705 25.2676 145.727 25.2222C145.751 25.1728 145.774 25.1237 145.797 25.0727C145.822 25.0156 145.845 24.9583 145.869 24.8994C145.885 24.8586 145.901 24.8155 145.917 24.7738C145.942 24.7051 145.967 24.6355 145.991 24.5646C146.004 24.5239 146.018 24.4844 146.03 24.443C146.053 24.3707 146.074 24.2961 146.094 24.2218C146.107 24.1733 146.12 24.1256 146.132 24.0764C146.149 24.0063 146.165 23.9347 146.18 23.8632C146.188 23.8257 146.195 23.7894 146.202 23.7516C146.22 23.6585 146.236 23.5637 146.25 23.4686C146.254 23.4428 146.258 23.4168 146.262 23.3909C146.277 23.2883 146.288 23.1845 146.298 23.08C146.3 23.06 146.304 23.0403 146.306 23.0202C146.315 22.9162 146.321 22.8109 146.326 22.7054C146.327 22.6773 146.327 22.6499 146.328 22.6217C146.331 22.5183 146.333 22.4152 146.332 22.3108C146.332 22.2852 146.333 22.2588 146.332 22.2331C146.33 22.1145 146.324 21.9958 146.316 21.8764C146.316 21.872 146.317 21.8668 146.316 21.8625C146.307 21.7345 146.294 21.6061 146.278 21.4779C146.278 21.4733 146.276 21.4706 146.276 21.4659C146.26 21.338 146.242 21.2089 146.218 21.0813C146.217 21.0755 146.215 21.0692 146.214 21.0634C146.194 20.9533 146.172 20.844 146.147 20.7346C146.139 20.7025 146.131 20.6709 146.123 20.639C146.098 20.5421 146.071 20.4459 146.043 20.35C146.033 20.3167 146.021 20.2836 146.011 20.2504C145.979 20.1498 145.946 20.0506 145.909 19.9515C145.9 19.9256 145.889 19.8996 145.879 19.8738C145.842 19.7781 145.801 19.6827 145.759 19.5888C145.743 19.5532 145.728 19.5185 145.711 19.4832C145.671 19.397 145.628 19.3125 145.584 19.2281C145.562 19.1882 145.54 19.148 145.518 19.1086C145.476 19.0337 145.432 18.9586 145.386 18.8854C145.356 18.8377 145.327 18.7908 145.296 18.7439C145.251 18.677 145.204 18.6119 145.156 18.5466C145.122 18.5003 145.088 18.4545 145.052 18.4091C145.003 18.3461 144.953 18.285 144.901 18.2238C144.857 18.1722 144.811 18.1205 144.765 18.0704C144.72 18.0222 144.676 17.9737 144.629 17.9269C144.574 17.8715 144.517 17.8169 144.459 17.7635C144.412 17.7196 144.363 17.6765 144.314 17.6339C144.248 17.5774 144.18 17.5225 144.11 17.4686C143.826 17.2484 143.514 17.0504 143.168 16.8787C143.164 16.8773 143.16 16.8762 143.157 16.8747C143.028 16.8111 142.894 16.7495 142.756 16.6934C142.734 16.6846 142.714 16.676 142.692 16.6675C142.637 16.646 142.582 16.626 142.526 16.6057C142.504 16.5978 142.481 16.5895 142.458 16.5818C142.404 16.5626 142.349 16.544 142.293 16.526C142.262 16.516 142.23 16.5057 142.199 16.4961C142.133 16.4761 142.067 16.4586 141.999 16.4403C141.989 16.4374 141.978 16.4332 141.967 16.4303C141.913 16.4159 141.859 16.4017 141.804 16.3885C141.76 16.3778 141.715 16.3685 141.67 16.3586C141.631 16.3499 141.591 16.3408 141.552 16.3327C141.499 16.3217 141.446 16.3127 141.392 16.3028C141.374 16.2995 141.356 16.294 141.338 16.2908C141.318 16.2872 141.299 16.2863 141.278 16.2828C141.177 16.2656 141.076 16.2497 140.975 16.235C140.943 16.2303 140.909 16.2255 140.877 16.2211C140.611 16.1846 140.345 16.1565 140.08 16.1374H140.078C136.043 15.8468 132.2 17.5229 128.941 19.5529C128.95 19.3548 128.959 19.1593 128.968 18.9631C128.979 18.74 128.99 18.5179 129.002 18.2975C129.019 17.9937 129.038 17.6928 129.056 17.3948C129.08 17.0167 129.104 16.6401 129.132 16.2729C129.159 15.9138 129.187 15.5598 129.218 15.2128C129.291 14.3939 129.375 13.6105 129.472 12.8753C129.476 12.8337 129.478 12.7951 129.482 12.7538C129.5 12.5617 129.517 12.3728 129.53 12.1878C129.533 12.1462 129.536 12.1035 129.538 12.0623C129.55 11.8729 129.559 11.6883 129.566 11.5063C129.569 11.4331 129.572 11.3612 129.574 11.2891C129.578 11.1357 129.58 10.9848 129.58 10.8368C129.58 10.7625 129.579 10.6885 129.578 10.6156C129.576 10.4552 129.573 10.2973 129.566 10.1433C129.564 10.1024 129.562 10.0623 129.56 10.0218C129.552 9.85315 129.54 9.68836 129.526 9.52756C129.523 9.49009 129.52 9.45302 129.516 9.41597C129.501 9.25745 129.482 9.10254 129.462 8.95166C129.457 8.9125 129.452 8.87275 129.446 8.83409C129.427 8.70402 129.405 8.57781 129.382 8.45349C129.371 8.39291 129.36 8.33336 129.348 8.27414C129.323 8.14915 129.296 8.0265 129.266 7.90748C129.257 7.87076 129.248 7.83404 129.238 7.79788C129.208 7.68289 129.176 7.57044 129.143 7.46111C129.127 7.40934 129.11 7.35819 129.093 7.30768C129.06 7.20881 129.025 7.1128 128.989 7.01873C128.969 6.96678 128.95 6.9158 128.929 6.86529C128.895 6.78359 128.859 6.70411 128.823 6.62617C128.797 6.57008 128.772 6.51493 128.745 6.46077C128.709 6.38744 128.67 6.31538 128.631 6.24556C128.602 6.19332 128.572 6.14241 128.542 6.09212C128.501 6.02497 128.46 5.96054 128.418 5.89684C128.388 5.85189 128.357 5.80657 128.326 5.76332C128.278 5.69681 128.23 5.63255 128.18 5.57003C128.15 5.53258 128.119 5.49646 128.088 5.46043C128.041 5.40508 127.994 5.35104 127.945 5.29902C127.906 5.25783 127.865 5.21859 127.825 5.17946C127.779 5.1346 127.733 5.0901 127.685 5.04794C127.637 5.00545 127.589 4.96417 127.539 4.92439C127.497 4.89035 127.455 4.85683 127.412 4.82476C127.357 4.78431 127.302 4.74653 127.246 4.70918C127.204 4.68172 127.162 4.65526 127.12 4.62947C127.058 4.59152 126.994 4.55426 126.93 4.51987C126.895 4.50108 126.86 4.48381 126.824 4.46607C126.748 4.42796 126.672 4.39176 126.593 4.35846C126.566 4.34706 126.538 4.33542 126.511 4.32458C126.428 4.29174 126.344 4.26268 126.259 4.23491C126.23 4.2253 126.201 4.21603 126.172 4.20701C126.083 4.18014 125.993 4.15485 125.902 4.13328C125.878 4.12767 125.854 4.1226 125.83 4.11734C125.735 4.09632 125.639 4.07892 125.541 4.06354C125.517 4.05988 125.494 4.05493 125.471 4.05158C125.37 4.03727 125.268 4.02628 125.165 4.01771C125.145 4.01601 125.124 4.01519 125.103 4.01372C124.992 4.00566 124.878 4.00126 124.764 3.99977C124.753 3.99963 124.743 3.99786 124.732 3.99778C124.673 3.99734 124.614 3.9965 124.554 3.99778L124.553 3.99776ZM121.418 6.87923H121.42C122.521 6.88588 123.158 8.3153 122.77 11.3369C122.678 12.0668 122.592 12.8212 122.508 13.5847C122.503 13.633 122.498 13.6798 122.492 13.7282C122.446 14.1579 122.4 14.5927 122.357 15.0314C122.341 15.1909 122.326 15.3511 122.311 15.5117C122.279 15.8364 122.249 16.1612 122.219 16.4901C122.184 16.8691 122.149 17.25 122.117 17.6339C122.115 17.6562 122.113 17.6793 122.111 17.7017C122.11 17.7114 122.11 17.7218 122.109 17.7315C121.924 19.9411 121.776 22.2259 121.676 24.5267C121.573 24.588 121.474 24.648 121.374 24.7041C121.373 24.7045 121.371 24.7056 121.37 24.7061C121.27 24.7621 121.172 24.8147 121.074 24.8655C121.073 24.866 121.071 24.867 121.07 24.8675C118.317 26.3012 116.506 25.6864 115.523 24.0545C115.488 23.9964 115.454 23.9358 115.422 23.8752C115.389 23.8145 115.356 23.753 115.326 23.6899C115.202 23.4363 115.095 23.162 115.004 22.8728C115.002 22.8668 115.002 22.861 115 22.8549C114.962 22.7311 114.927 22.6038 114.894 22.4743C114.886 22.4437 114.88 22.4136 114.872 22.3826C114.843 22.2605 114.816 22.1367 114.793 22.01C114.786 21.9783 114.78 21.9463 114.775 21.9144C114.752 21.7875 114.732 21.6585 114.715 21.5278C114.71 21.4898 114.705 21.4504 114.701 21.4122C114.687 21.2966 114.675 21.1798 114.665 21.0615C114.66 20.9983 114.655 20.936 114.651 20.8722C114.643 20.7656 114.637 20.6578 114.633 20.5493C114.63 20.4808 114.628 20.4113 114.627 20.3421C114.624 20.2368 114.623 20.13 114.624 20.0233C114.625 19.9564 114.625 19.8894 114.627 19.822C114.629 19.7035 114.633 19.5852 114.638 19.4653C114.642 19.4022 114.645 19.3395 114.649 19.276C114.656 19.1665 114.663 19.0556 114.673 18.9452C114.681 18.8546 114.691 18.7634 114.701 18.6722C114.71 18.582 114.719 18.4918 114.73 18.4012C114.742 18.3064 114.755 18.2114 114.768 18.1162C114.78 18.032 114.793 17.9476 114.806 17.8632C114.824 17.755 114.842 17.6467 114.862 17.5384C114.879 17.4449 114.897 17.3509 114.916 17.2574C114.932 17.1805 114.949 17.1051 114.966 17.0282C114.993 16.905 115.02 16.7825 115.05 16.6596C115.065 16.5966 115.082 16.5331 115.098 16.4703C115.126 16.3604 115.155 16.2509 115.186 16.1415C115.209 16.0569 115.232 15.9726 115.257 15.8884C115.29 15.7787 115.324 15.6685 115.359 15.5596C115.372 15.5214 115.385 15.4841 115.397 15.446C115.414 15.3955 115.43 15.3466 115.447 15.2965C115.518 15.0831 115.589 14.8707 115.663 14.6649C115.679 14.6203 115.695 14.5756 115.711 14.5313C115.788 14.3176 115.867 14.1109 115.946 13.9056C115.977 13.8266 116.007 13.7482 116.038 13.6705C116.119 13.4659 116.201 13.2645 116.284 13.0687C116.298 13.0351 116.311 13.0004 116.326 12.9671C118.023 9.0039 120.068 6.87118 121.417 6.87933L121.418 6.87923ZM81.649 11.1636V11.1655C80.6819 11.1507 79.701 11.2776 78.7457 11.5462H78.7437C78.6249 11.5796 78.5061 11.614 78.3882 11.6518L78.3862 11.6538C78.2684 11.6916 78.1515 11.7312 78.0348 11.7733H78.0327C77.916 11.8155 77.7988 11.8603 77.6833 11.9068H77.6812C77.5657 11.9534 77.452 12.0033 77.3378 12.0543C75.7297 12.7717 74.2644 13.9218 73.1666 15.5077C71.8739 17.3704 70.8624 19.5723 70.0936 22.0697C70.0659 22.1596 70.0369 22.248 70.0098 22.3387C69.9233 22.6285 69.8403 22.9219 69.7602 23.2195V23.2215C69.2795 25.0078 68.9118 26.9328 68.65 28.9864C66.9393 28.6997 64.9746 28.364 62.9034 28.1216C62.0999 28.0275 61.28 27.9475 60.4534 27.8904C56.5914 27.6227 52.5738 27.8498 49.2896 29.4368C48.2498 29.9475 47.4867 30.6103 46.9475 31.3558C46.9106 31.4066 46.8744 31.4575 46.8396 31.5092C44.791 34.5573 46.3684 38.8839 48.5029 40.046L48.505 40.0439C48.5056 40.0413 49.1504 37.3759 53.4489 35.4786C54.812 34.8665 56.4926 34.3267 58.3409 33.9044C61.4218 33.2021 64.9676 32.8267 68.2767 32.9778C68.2222 33.9606 68.1884 34.9668 68.1768 35.9947V35.9968C68.1729 36.3393 68.172 36.6837 68.1728 37.031V37.033C68.1737 37.38 68.1773 37.7296 68.1829 38.0812V38.0832C68.1884 38.4349 68.1947 38.7891 68.2048 39.1454C68.3053 42.7163 68.6361 46.5154 69.1792 50.4899C69.2239 50.8164 69.2901 51.1306 69.3729 51.4324C68.604 53.6239 67.5163 55.2362 66.4457 55.1508C65.1188 55.0688 65.2652 51.3281 65.4313 47.4111C65.8166 39.9635 63.1291 37.311 59.1376 36.9793C54.9664 36.6665 52.4137 38.4155 51.1647 40.4028C51.1104 40.4892 51.0583 40.5767 51.0089 40.6638C50.6137 41.361 50.3744 42.0777 50.2781 42.7362C49.7068 46.5773 53.7894 48.2084 56.8534 46.5662C59.7511 44.9902 57.1129 42.3736 57.1129 42.3736C54.8393 45.3085 52.9985 44.0279 53.2313 42.2022C53.4818 40.5051 54.5216 40.1022 56.2923 39.9046C58.0688 39.7503 59.007 42.1159 58.9759 44.1331C58.9582 44.967 58.9832 45.7952 59.0458 46.5742C57.3945 47.3243 55.7567 47.8537 55.0543 48.1684C51.9743 49.285 49.49 50.9286 49.2937 54.0807C47.7652 56.8913 44.67 59.1038 41.6941 58.9131C38.1996 58.6887 38.0078 53.7698 38.4674 50.0754C38.837 47.0057 40.0957 42.4153 41.8878 42.6964C43.7172 42.9287 43.1211 51.717 39.6854 53.8476C38.1066 54.8065 39.7801 55.4994 39.8232 55.4936C50.9972 49.9902 50.7646 41.2248 42.1594 40.8212C36.4283 40.5951 31.7833 45.4293 31.4549 51.6875C31.1695 57.9403 36.0366 61.4776 39.4079 61.7627C41.478 61.9211 43.4525 61.4938 45.1844 60.6627C45.2597 60.6265 45.3337 60.5907 45.4081 60.5531C47.2646 59.6134 48.8288 58.2069 49.9187 56.5677C50.9236 58.2759 53.0154 59.4506 55.3918 58.9748C58.3326 58.3559 59.4078 55.3202 59.8245 52.5942C60.5917 55.6404 61.973 57.7273 64.1155 58.0044C66.8399 58.3114 68.9634 56.338 70.2834 53.4331C70.3996 53.6069 70.5235 53.7736 70.6528 53.9333V53.9353C70.7146 54.0116 70.778 54.0855 70.8425 54.1585C70.907 54.2315 70.9731 54.304 71.0402 54.3737H71.0422C71.1094 54.4435 71.1764 54.5125 71.2459 54.579C72.432 55.7147 73.955 56.3673 75.3911 56.474C78.3961 56.6679 84.7905 52.7512 85.6823 44.8525C85.6894 44.7898 85.6959 44.7265 85.7023 44.6632C85.7085 44.601 85.7146 44.5386 85.7202 44.4759V44.4739C85.7579 44.0895 85.7817 43.7162 85.7901 43.354V43.3519C85.7943 43.1713 85.7949 42.9929 85.7922 42.8179V42.8158C85.7894 42.6409 85.7817 42.4689 85.7722 42.2997C85.7722 42.2988 85.7723 42.2967 85.7722 42.2958C85.7338 41.6167 85.6427 40.9838 85.5046 40.4007V40.3986C85.4702 40.2532 85.433 40.1114 85.3928 39.9722V39.9702C85.3527 39.831 85.3086 39.6946 85.263 39.5617C85.2174 39.4288 85.1701 39.2976 85.1193 39.1711H85.1172C85.0664 39.0447 85.0133 38.9204 84.9575 38.8004V38.7984C84.9017 38.6785 84.8424 38.563 84.7818 38.4497V38.4476C84.7212 38.3344 84.6573 38.2235 84.5921 38.1168C83.4134 36.1869 81.5054 35.3485 79.5044 35.8671C79.1552 35.9584 78.8345 36.0814 78.538 36.2317L78.5359 36.2338C78.4628 36.271 78.3904 36.3089 78.3203 36.3494C78.0732 36.4916 77.8448 36.6548 77.6334 36.8336C77.6017 36.8604 77.5705 36.8877 77.5396 36.9153H77.5375C77.4784 36.968 77.4202 37.0234 77.3638 37.0787C77.3589 37.0835 77.3547 37.0879 77.3498 37.0926C77.2987 37.1432 77.249 37.1955 77.2001 37.2481H77.198C77.1445 37.3056 77.0913 37.3656 77.0403 37.4254C77.0296 37.438 77.0209 37.4506 77.0103 37.4633C76.9192 37.5722 76.832 37.6844 76.7487 37.8001H76.7467C76.7005 37.8643 76.6568 37.9312 76.6129 37.9973H76.6109C75.8645 39.123 75.4522 40.5136 75.1892 41.8233C75.1816 39.8687 75.2241 37.9885 75.299 36.174C75.3385 35.234 75.3828 34.3063 75.4388 33.4041C82.5745 33.0015 89.383 28.9248 90.005 20.9636C90.4233 15.5244 87.47 12.3457 83.7832 11.4365C83.0919 11.266 82.374 11.1746 81.6487 11.1635L81.649 11.1636ZM82.0243 13.2121C82.0263 13.2121 82.0284 13.2121 82.0304 13.2121C82.0812 13.212 82.1323 13.2149 82.1821 13.22C82.197 13.2216 82.2113 13.224 82.2261 13.226C82.2687 13.2317 82.31 13.2385 82.3518 13.2479C82.3711 13.2523 82.3906 13.2587 82.4098 13.2639C82.4444 13.2732 82.4795 13.2839 82.5136 13.2958C82.5352 13.3033 82.5561 13.3112 82.5775 13.3197C82.5908 13.3249 82.6042 13.33 82.6174 13.3356C82.6775 13.3614 82.7368 13.3918 82.7951 13.4253C82.8056 13.4313 82.8166 13.4369 82.8271 13.4432C82.9601 13.5231 83.0875 13.6222 83.2104 13.7401C83.2204 13.7497 83.2305 13.7602 83.2404 13.77C83.2931 13.8223 83.3454 13.8766 83.3961 13.9354C83.4055 13.9463 83.4148 13.9582 83.4241 13.9693C83.5385 14.1058 83.6462 14.2593 83.7496 14.4276C83.7636 14.4505 83.7777 14.4739 83.7915 14.4974C83.8278 14.5589 83.8645 14.6214 83.8993 14.6867C83.9153 14.7168 83.9316 14.7475 83.9472 14.7783C83.981 14.8447 84.0128 14.9138 84.0451 14.9836C84.072 15.0419 84.0972 15.1023 84.1229 15.1629C84.1465 15.2183 84.1702 15.2731 84.1928 15.3303C84.2137 15.3831 84.2347 15.4374 84.2547 15.4917C84.2734 15.5424 84.2927 15.5932 84.3107 15.6452C84.3317 15.7061 84.3525 15.7678 84.3726 15.8305C84.3834 15.8644 84.3919 15.8997 84.4025 15.9341C84.4519 16.095 84.4996 16.259 84.5423 16.4303C84.5429 16.4327 84.5437 16.4358 84.5443 16.4383C84.5648 16.5206 84.5833 16.6047 84.6022 16.6893C84.6099 16.7236 84.6188 16.7583 84.6262 16.793C84.6449 16.8804 84.6631 16.9684 84.6801 17.058C84.682 17.0682 84.6821 17.0796 84.6841 17.0899C84.8636 18.0506 84.9457 19.1298 84.9077 20.2583C84.8506 21.5241 84.6523 22.6957 84.2867 23.7515C84.2413 23.8826 84.1937 24.0126 84.143 24.1401C84.1157 24.2088 84.0859 24.2757 84.0571 24.3433C84.032 24.4021 84.0075 24.4627 83.9812 24.5207C83.925 24.6447 83.8672 24.7672 83.8055 24.8874C83.7554 24.9851 83.7015 25.0811 83.6478 25.1763C83.6351 25.1987 83.6227 25.2218 83.6098 25.2441C83.5425 25.3604 83.4731 25.4745 83.4002 25.5868L83.3981 25.5888C83.3252 25.7011 83.2492 25.8115 83.1705 25.9196C83.0916 26.028 83.0097 26.1343 82.9249 26.2385C82.6705 26.5509 82.3894 26.8447 82.0803 27.1173C81.9774 27.208 81.872 27.2962 81.7628 27.3823L81.7608 27.3843C81.6517 27.4703 81.5407 27.5541 81.4253 27.6354C81.3867 27.6626 81.3449 27.6864 81.3055 27.7131C80.9912 27.9261 80.6564 28.1249 80.2952 28.303H80.2931C79.0738 28.9036 77.5811 29.2994 75.7785 29.4587C76.0572 26.927 76.4251 24.6429 76.8607 22.6417C76.9333 22.3084 77.0081 21.9826 77.0844 21.6652V21.6632C77.1607 21.3457 77.2382 21.0378 77.318 20.7366C77.9584 18.3247 78.7094 16.4392 79.5224 15.1689C79.8041 14.7372 80.083 14.3829 80.355 14.1008V14.0989C80.5449 13.9027 80.7325 13.7436 80.9161 13.6146C80.9875 13.5644 81.0574 13.5176 81.1278 13.4771C81.3099 13.3723 81.4895 13.3004 81.6629 13.2579C81.7193 13.2441 81.7752 13.2336 81.8306 13.2261C81.8414 13.2246 81.8518 13.2233 81.8626 13.2221C81.9172 13.2158 81.9707 13.2124 82.0243 13.2121L82.0243 13.2121ZM93.9848 22.2072C91.6394 22.2357 89.7113 23.8248 89.5301 26.1468C89.3835 27.9608 90.9117 30.1593 93.3438 30.3095C95.549 30.4032 97.6031 29.0723 98.1979 27.3284C98.9238 25.2605 97.8404 22.7828 95.0111 22.2929C94.6628 22.2309 94.3199 22.2031 93.9848 22.2072V22.2072ZM24.9456 27.2308C21.1646 27.2842 16.216 29.4077 14.4627 33.5218C12.0681 39.0988 14.1056 45.3422 17.8352 51.1354C19.3498 53.5547 20.51 55.6283 21.2536 57.54C18.5281 57.1671 15.7372 57.2828 12.9372 57.9704C2.5672 60.695 2.26232 72.902 9.26723 75.7115C14.4142 77.7797 21.9424 74.5565 26.0857 69.7473C26.2515 69.555 26.4124 69.3607 26.567 69.1635C27.4942 67.9802 28.2126 66.7127 28.6436 65.4152C28.6318 65.3295 28.6702 65.2818 28.7015 65.19C33.1041 68.5288 37.3632 73.0671 40.8776 77.9274C41.0419 78.1673 48.2888 72.8065 43.2757 68.8506C39.0022 65.4941 34.2978 62.1958 29.3963 60.0189C29.2826 55.6586 27.5155 51.3928 25.1732 47.7298C21.9249 42.5707 18.6876 37.8045 19.5384 33.4441C20.1292 30.3881 22.9857 28.5111 26.1496 29.5244C29.7186 30.6138 29.0353 36.5271 22.5316 38.9878C22.5316 38.9878 27.2493 44.9523 31.7904 40.9646C35.232 37.9144 34.5086 29.7416 27.3217 27.5257C26.6272 27.3167 25.8181 27.2185 24.9456 27.2308ZM121.33 32.6749C121.368 32.6759 121.401 32.678 121.436 32.6809C121.463 32.6832 121.485 32.685 121.502 32.6849C121.507 32.6848 121.518 32.6874 121.522 32.6869C121.561 34.3825 121.645 36.0493 121.751 37.6727C121.758 37.7662 121.763 37.8585 121.769 37.9517C121.796 38.3398 121.823 38.7249 121.851 39.1074C121.86 39.211 121.865 39.3171 121.873 39.4203C121.273 44.972 120.664 47.2439 119.411 47.0644C119.277 47.0457 119.157 46.9913 119.048 46.9049H119.046C119.011 46.8769 118.977 46.8438 118.944 46.8093C118.939 46.8036 118.933 46.7972 118.928 46.7914C118.905 46.7665 118.884 46.7415 118.862 46.7136C118.848 46.6945 118.833 46.6744 118.818 46.6539C118.806 46.6364 118.794 46.6165 118.782 46.5981C118.575 46.2698 118.429 45.7882 118.331 45.2052C118.323 45.1568 118.315 45.1074 118.307 45.0577C118.066 43.4584 118.166 41.173 118.383 39.1991C118.531 37.9714 118.686 36.7072 118.954 35.6222C118.963 35.5844 118.974 35.546 118.984 35.5086C119.012 35.4008 119.04 35.2956 119.07 35.1918C119.092 35.1144 119.116 35.0395 119.14 34.9646C119.162 34.8944 119.186 34.8252 119.21 34.7574C119.242 34.665 119.274 34.5741 119.31 34.4864C119.389 34.288 119.475 34.1003 119.569 33.9284C119.578 33.9108 119.587 33.8938 119.597 33.8766C119.619 33.8373 119.644 33.7987 119.667 33.761C119.682 33.737 119.696 33.7126 119.711 33.6893C119.731 33.6586 119.75 33.6291 119.771 33.5996C119.791 33.5711 119.81 33.5433 119.831 33.5159C119.849 33.4915 119.868 33.4676 119.887 33.4442C119.909 33.416 119.933 33.3873 119.957 33.3605C119.975 33.3387 119.993 33.3176 120.012 33.2967C120.036 33.2716 120.06 33.2487 120.084 33.225C120.102 33.2077 120.118 33.1897 120.136 33.1732C120.174 33.1382 120.212 33.1052 120.252 33.0735C120.254 33.0716 120.258 33.0694 120.26 33.0675C120.353 32.9945 120.451 32.93 120.554 32.8762C120.607 32.8487 120.66 32.8227 120.716 32.8005C120.883 32.7339 121.063 32.6932 121.259 32.6789H121.261C121.282 32.6761 121.306 32.6743 121.331 32.675L121.33 32.6749ZM78.0628 39.1273V39.1293C78.1477 39.1287 78.2254 39.1403 78.2984 39.1672H78.3005C78.3368 39.1806 78.3708 39.1971 78.4043 39.217C79.3798 39.7969 79.1786 43.0844 78.8456 46.4605C78.5155 50.2195 77.7008 53.3748 76.6172 54.0787C76.4635 54.1778 76.3039 54.227 76.14 54.2221C74.9563 54.1658 75.2468 51.2578 75.2834 47.9989C75.2835 47.9977 75.2853 47.9962 75.2854 47.9949C75.3403 47.3162 75.4025 46.6681 75.4751 46.056L75.4772 46.054C75.5135 45.7481 75.5505 45.4516 75.591 45.1632L75.593 45.1612C75.6335 44.8731 75.6763 44.5921 75.7208 44.3223V44.3202C75.7654 44.0503 75.8121 43.7902 75.8606 43.5391V43.537C75.8687 43.4952 75.8784 43.4568 75.8866 43.4155C76.1247 42.2146 76.4064 41.2352 76.7252 40.5201C76.7581 40.4462 76.7913 40.3751 76.825 40.3068C76.9939 39.9648 77.1717 39.6935 77.3582 39.4978C77.4326 39.4197 77.5087 39.3522 77.5858 39.2985C77.6242 39.2718 77.6645 39.2474 77.7036 39.2268C77.7209 39.2177 77.7381 39.2128 77.7555 39.2049C77.7773 39.195 77.7994 39.1829 77.8214 39.175C77.901 39.1463 77.9812 39.1301 78.063 39.1272L78.0628 39.1273ZM59.0738 48.0586L59.0858 48.1443C59.08 48.1013 59.0361 48.1072 59.0419 48.1503C58.8232 52.6435 58.0698 55.1528 57.0192 55.1647C56.957 55.1704 56.8988 55.1696 56.8435 55.1626C56.8159 55.1592 56.7896 55.1533 56.7636 55.1467C56.0111 54.959 55.9572 53.5142 56.1187 51.787C56.3062 50.2735 57.1992 49.1017 59.0738 48.0586L59.0738 48.0586ZM16.4675 60.2002C18.3105 60.1912 20.2515 60.6357 22.2241 61.4337C22.2417 62.5252 22.069 63.5097 21.7189 64.4766C20.1009 68.679 17.3453 70.981 13.0211 69.8191C7.86921 68.3764 7.19937 62.8219 13.2707 60.7263C14.2913 60.374 15.3617 60.2057 16.4675 60.2002Z" fill="#3A405A"/>
</svg>
