<svg width="86" height="89" viewBox="0 0 86 89" fill="none" xmlns="http://www.w3.org/2000/svg">
<path fill-rule="evenodd" clip-rule="evenodd" d="M40.9754 82.2208C42.3845 81.9643 43.178 81.2381 44.1537 79.3122C45.3631 76.9254 46.3967 71.8565 47.3413 63.6794C47.8754 59.0562 48.601 57.6183 50.4359 57.5455C50.9341 57.5258 51.9001 57.9191 53.8793 58.9479C58.4279 61.3118 61.2963 61.9626 64.4608 61.3489C68.8226 60.5031 70.4085 58.0303 68.1148 55.6521C67.1891 54.6923 66.4856 54.4195 63.8193 53.9864C61.2399 53.5675 59.0203 52.7496 57.6262 51.7044C56.0438 50.5183 55.2199 49.0152 54.5591 46.1093C53.3723 40.8902 52.934 39.536 51.9296 37.9832C51.3853 37.1417 50.559 36.1184 50.0934 35.7093C49.6278 35.3 49.2418 34.9172 49.2355 34.8584C49.2291 34.7999 49.9533 31.1107 50.8444 26.6607L52.4649 18.5698L55.231 17.9847C58.2235 17.3517 59.2909 16.9144 59.7647 16.1274C60.2256 15.362 59.9932 14.9301 58.7045 14.1568C54.0663 11.3739 34.4083 10.8092 28.2557 13.2819C26.6731 13.9179 25.9764 14.8014 26.4425 15.5809C26.8096 16.1947 28.5832 17.0284 30.5604 17.5165L32.0283 17.8789L31.9749 19.6335C31.8461 23.8513 30.8719 31.1965 28.7761 43.7533C27.578 50.9309 27.1971 54.5333 27.4899 55.9134C27.7331 57.0603 28.6283 58.3687 29.5554 58.9325C30.0024 59.2042 30.4538 59.7368 30.7154 60.3013C31.2308 61.4125 32.0234 62.1515 33.3494 62.7567C34.0928 63.096 34.4736 63.4269 34.8889 64.0943C35.5185 65.1063 37.2666 66.2762 38.2188 66.3229C38.7994 66.3513 38.8079 66.4454 38.5076 69.4839C37.8251 76.3925 37.6467 79.5985 37.8974 80.4549C38.2792 81.7607 39.5379 82.4827 40.9754 82.2208Z" fill="#3A405A" fill-opacity="0.15"/>
<path fill-rule="evenodd" clip-rule="evenodd" d="M40.9754 82.2208C42.3845 81.9643 43.178 81.2381 44.1537 79.3122C45.3631 76.9254 46.3967 71.8565 47.3413 63.6794C47.8754 59.0562 48.601 57.6183 50.4359 57.5455C50.9341 57.5258 51.9001 57.9191 53.8793 58.9479C58.4279 61.3118 61.2963 61.9626 64.4608 61.3489C68.8226 60.5031 70.4085 58.0303 68.1148 55.6521C67.1891 54.6923 66.4856 54.4195 63.8193 53.9864C61.2399 53.5675 59.0203 52.7496 57.6262 51.7044C56.0438 50.5183 55.2199 49.0152 54.5591 46.1093C53.3723 40.8902 52.934 39.536 51.9296 37.9832C51.3853 37.1417 50.559 36.1184 50.0934 35.7093C49.6278 35.3 49.2418 34.9172 49.2355 34.8584C49.2291 34.7999 49.9533 31.1107 50.8444 26.6607L52.4649 18.5698L55.231 17.9847C58.2235 17.3517 59.2909 16.9144 59.7647 16.1274C60.2256 15.362 59.9932 14.9301 58.7045 14.1568C54.0663 11.3739 34.4083 10.8092 28.2557 13.2819C26.6731 13.9179 25.9764 14.8014 26.4425 15.5809C26.8096 16.1947 28.5832 17.0284 30.5604 17.5165L32.0283 17.8789L31.9749 19.6335C31.8461 23.8513 30.8719 31.1965 28.7761 43.7533C27.578 50.9309 27.1971 54.5333 27.4899 55.9134C27.7331 57.0603 28.6283 58.3687 29.5554 58.9325C30.0024 59.2042 30.4538 59.7368 30.7154 60.3013C31.2308 61.4125 32.0234 62.1515 33.3494 62.7567C34.0928 63.096 34.4736 63.4269 34.8889 64.0943C35.5185 65.1063 37.2666 66.2762 38.2188 66.3229C38.7994 66.3513 38.8079 66.4454 38.5076 69.4839C37.8251 76.3925 37.6467 79.5985 37.8974 80.4549C38.2792 81.7607 39.5379 82.4827 40.9754 82.2208ZM39.3866 80.8888C40.3807 80.6404 41.2805 79.3609 41.7259 77.5627C42.1473 75.862 41.4282 74.989 39.53 74.8971L38.5529 74.8497L38.846 71.7235C39.6999 62.6149 40.1525 55.8927 39.9581 55.2067C39.7975 54.6396 39.6456 54.4582 39.3862 54.5231C38.7779 54.6752 38.6666 55.7036 39.0444 57.6842C39.2831 58.9361 39.3285 60.6541 39.1756 62.6723C38.9542 65.5991 38.9163 65.7535 38.4103 65.8057C37.6859 65.8808 35.6472 64.474 35.2302 63.6113C35.0169 63.1701 35.0302 61.3822 35.2712 58.1057C35.6212 53.3499 35.559 52.0661 34.98 52.0737C34.3096 52.0826 34.16 53.0638 34.5269 55.0475C35.016 57.6927 34.7445 62.4565 34.1026 62.4935C33.4948 62.5283 32.0236 61.3968 31.4033 60.417C30.9197 59.6532 30.8995 59.1903 31.1914 55.5971C31.5093 51.6845 31.4108 49.8866 30.8785 49.8937C30.2175 49.9023 30.052 50.9427 30.3813 53.0205C30.7482 55.3366 30.6465 58.6487 30.2084 58.6546C29.7736 58.6604 28.5465 57.2493 28.1678 56.308C27.6721 55.0768 28.0542 51.3081 29.6062 42.1206C31.7314 29.5384 32.6369 21.7461 32.6892 15.5913C32.7009 14.2079 32.8136 12.9956 32.9395 12.8972C33.4604 12.49 40.5066 12.1655 45.2748 12.3285C47.6277 12.4092 52.5865 12.9097 52.8917 13.0975C52.9721 13.1471 52.6899 14.8278 52.2643 16.832C51.5908 20.0051 51.3967 20.5976 50.765 21.4115C50.2824 22.0333 49.9249 22.7807 49.6977 23.6431C49.51 24.3564 49.2954 25.0415 49.2208 25.1658C49.1464 25.2899 48.4265 25.5799 47.6212 25.81C46.816 26.0401 46.0872 26.345 46.0016 26.4877C45.9159 26.6304 45.8637 27.3401 45.8856 28.0647C45.9319 29.6085 45.6068 30.0151 44.3116 30.0321C43.0603 30.0486 42.358 30.5712 42.2974 31.5318C42.2386 32.4591 42.5596 32.7741 43.9432 33.146C45.3956 33.5365 47.8701 34.6406 48.4457 35.155C48.7006 35.3829 48.8362 35.6912 48.7467 35.8402C48.6574 35.9891 48.8781 36.8847 49.2375 37.8303C49.5966 38.776 50.1921 40.8669 50.5604 42.477C51.1294 44.9634 51.3805 45.6026 52.2277 46.722C52.7762 47.4468 53.6372 48.8886 54.1408 49.9259C54.6446 50.9633 55.4357 52.1954 55.8989 52.6642C56.597 53.3707 56.6954 53.5931 56.4735 53.963C55.956 54.8254 56.4461 54.9068 56.9832 54.0475C57.2736 53.5828 57.4884 53.3457 57.4603 53.5205C57.4229 53.7549 57.5124 53.8224 57.8027 53.7779C58.1116 53.7304 58.123 53.7887 57.8558 54.0502C57.4372 54.4598 57.0586 56.0312 57.3383 56.199C57.4536 56.2682 57.572 56.1344 57.6104 55.8906C57.648 55.6535 57.832 55.0967 58.0191 54.6532C58.271 54.0559 58.4314 53.888 58.6358 54.0063C58.7879 54.0944 59.4202 54.2249 60.0408 54.2962C60.9417 54.4 61.1346 54.3503 60.9974 54.0498C60.8666 53.7632 60.9141 53.7672 61.1963 54.0665C61.4143 54.2975 61.6193 54.3723 61.694 54.2478C61.7638 54.1315 61.9547 54.1166 62.1182 54.2147C62.2817 54.3128 62.3717 54.4663 62.318 54.5557C62.2644 54.645 62.3159 55.2825 62.4326 55.9722C62.6874 57.4786 63.1467 57.8295 65.0622 57.9792C66.3035 58.0765 66.9477 57.9441 68.0926 57.3567C68.5281 57.1333 68.5449 57.1448 68.6145 57.7081C68.7738 58.999 67.4979 60.0229 64.9302 60.665C61.7867 61.4508 58.5487 60.8036 54.2331 58.5272C51.1432 56.8973 50.0384 56.6765 48.8687 57.4551C47.6529 58.2644 47.3151 59.3457 46.6957 64.4145C45.7316 72.3017 44.5287 77.927 43.4131 79.7639C42.8095 80.7577 41.4248 81.7437 40.5457 81.8058C40.1848 81.8313 39.6012 81.6794 39.2488 81.4679L38.6082 81.0835L39.3866 80.8888ZM38.3414 77.7191C38.5034 75.1785 38.5022 75.1799 40.186 75.4252C41.4769 75.6131 41.6775 76.0848 41.2035 77.8183C40.6376 79.8877 39.6149 80.8788 38.6454 80.2972C38.2779 80.0767 38.2216 79.5978 38.3414 77.7191ZM40.8898 68.9281C41.7678 68.9578 42.4581 68.7787 42.4546 68.5221C42.453 68.3887 42.0486 68.3443 41.5562 68.4232C41.0637 68.5022 40.4446 68.4373 40.1804 68.2787C39.9162 68.1202 39.6466 68.0798 39.5812 68.1888C39.4234 68.4518 40.2265 68.9056 40.8898 68.9281ZM40.6674 67.6908C41.0122 67.7146 41.4104 67.6338 41.5523 67.5114C41.751 67.34 41.6577 67.2997 41.1473 67.3358C40.7826 67.3614 40.2809 67.2607 40.0326 67.1117C39.7844 66.9628 39.5277 66.9301 39.4623 67.0391C39.2998 67.3099 39.9077 67.6388 40.6674 67.6908ZM62.8526 56.0706C62.5033 54.4091 62.5603 54.3554 64.3675 54.6429C66.2933 54.949 68.2274 56.0426 67.9889 56.6904C67.6795 57.5308 64.6202 57.8717 63.4864 57.1919C63.2357 57.0418 62.9507 56.537 62.8526 56.0706ZM53.4012 44.1996C53.3434 43.7374 53.3545 43.7346 53.5211 44.1696C53.6221 44.4338 53.6844 44.6836 53.6598 44.7246C53.5619 44.8877 53.4621 44.6852 53.4012 44.1996Z" fill="white"/>
<path fill-rule="evenodd" clip-rule="evenodd" d="M40.9754 82.2208C42.3845 81.9643 43.178 81.2381 44.1537 79.3122C45.3631 76.9254 46.3967 71.8565 47.3413 63.6794C47.8754 59.0562 48.601 57.6183 50.4359 57.5455C50.9341 57.5258 51.9001 57.9191 53.8793 58.9479C58.4279 61.3118 61.2963 61.9626 64.4608 61.3489C68.8226 60.5031 70.4085 58.0303 68.1148 55.6521C67.1891 54.6923 66.4856 54.4195 63.8193 53.9864C61.2399 53.5675 59.0203 52.7496 57.6262 51.7044C56.0438 50.5183 55.2199 49.0152 54.5591 46.1093C53.3723 40.8902 52.934 39.536 51.9296 37.9832C51.3853 37.1417 50.559 36.1184 50.0934 35.7093C49.6278 35.3 49.2418 34.9172 49.2355 34.8584C49.2291 34.7999 49.9533 31.1107 50.8444 26.6607L52.4649 18.5698L55.231 17.9847C58.2235 17.3517 59.2909 16.9144 59.7647 16.1274C60.2256 15.362 59.9932 14.9301 58.7045 14.1568C54.0663 11.3739 34.4083 10.8092 28.2557 13.2819C26.6731 13.9179 25.9764 14.8014 26.4425 15.5809C26.8096 16.1947 28.5832 17.0284 30.5604 17.5165L32.0283 17.8789L31.9749 19.6335C31.8461 23.8513 30.8719 31.1965 28.7761 43.7533C27.578 50.9309 27.1971 54.5333 27.4899 55.9134C27.7331 57.0603 28.6283 58.3687 29.5554 58.9325C30.0024 59.2042 30.4538 59.7368 30.7154 60.3013C31.2308 61.4125 32.0234 62.1515 33.3494 62.7567C34.0928 63.096 34.4736 63.4269 34.8889 64.0943C35.5185 65.1063 37.2666 66.2762 38.2188 66.3229C38.7994 66.3513 38.8079 66.4454 38.5076 69.4839C37.8251 76.3925 37.6467 79.5985 37.8974 80.4549C38.2792 81.7607 39.5379 82.4827 40.9754 82.2208ZM39.3866 80.8888C40.3807 80.6404 41.2805 79.3609 41.7259 77.5627C42.1473 75.862 41.4282 74.989 39.53 74.8971L38.5529 74.8497L38.846 71.7235C39.6999 62.6149 40.1525 55.8927 39.9581 55.2067C39.7975 54.6396 39.6456 54.4582 39.3862 54.5231C38.7779 54.6752 38.6666 55.7036 39.0444 57.6842C39.2831 58.9361 39.3285 60.6541 39.1756 62.6723C38.9542 65.5991 38.9163 65.7535 38.4103 65.8057C37.6859 65.8808 35.6472 64.474 35.2302 63.6113C35.0169 63.1701 35.0302 61.3822 35.2712 58.1057C35.6212 53.3499 35.559 52.0661 34.98 52.0737C34.3096 52.0826 34.16 53.0638 34.5269 55.0475C35.016 57.6927 34.7445 62.4565 34.1026 62.4935C33.4948 62.5283 32.0236 61.3968 31.4033 60.417C30.9197 59.6532 30.8995 59.1903 31.1914 55.5971C31.5093 51.6845 31.4108 49.8866 30.8785 49.8937C30.2175 49.9023 30.052 50.9427 30.3813 53.0205C30.7482 55.3366 30.6465 58.6487 30.2084 58.6546C29.7736 58.6604 28.5465 57.2493 28.1678 56.308C27.6721 55.0768 28.0542 51.3081 29.6062 42.1206C31.7314 29.5384 32.6369 21.7461 32.6892 15.5913C32.7009 14.2079 32.8136 12.9956 32.9395 12.8972C33.4604 12.49 40.5066 12.1655 45.2748 12.3285C47.6277 12.4092 52.5865 12.9097 52.8917 13.0975C52.9721 13.1471 52.6899 14.8278 52.2643 16.832C51.5908 20.0051 51.3967 20.5976 50.765 21.4115C50.2824 22.0333 49.9249 22.7807 49.6977 23.6431C49.51 24.3564 49.2954 25.0415 49.2208 25.1658C49.1464 25.2899 48.4265 25.5799 47.6212 25.81C46.816 26.0401 46.0872 26.345 46.0016 26.4877C45.9159 26.6304 45.8637 27.3401 45.8856 28.0647C45.9319 29.6085 45.6068 30.0151 44.3116 30.0321C43.0603 30.0486 42.358 30.5712 42.2974 31.5318C42.2385 32.4615 42.5594 32.774 43.9585 33.1501C47.1294 34.0021 49.8838 35.8316 51.4171 38.1042C52.2035 39.27 52.5294 40.2324 53.4651 44.1506C54.7973 49.7294 55.2891 50.6884 57.6266 52.2657C58.6388 52.9487 59.6964 53.473 60.7314 53.8048C62.1652 54.2645 62.3001 54.3446 62.2885 54.7293C62.2815 54.9607 62.3611 55.6188 62.4653 56.1914C62.6976 57.4678 63.2325 57.8362 65.0622 57.9792C66.3035 58.0765 66.9477 57.9441 68.0926 57.3567C68.5281 57.1333 68.5449 57.1448 68.6145 57.7081C68.7738 58.999 67.4979 60.0229 64.9302 60.665C61.7867 61.4508 58.5487 60.8036 54.2331 58.5272C51.1432 56.8973 50.0384 56.6765 48.8687 57.4551C47.6529 58.2644 47.3151 59.3457 46.6957 64.4145C45.7316 72.3017 44.5287 77.927 43.4131 79.7639C42.8095 80.7577 41.4248 81.7437 40.5457 81.8058C40.1848 81.8313 39.6012 81.6794 39.2488 81.4679L38.6082 81.0835L39.3866 80.8888ZM38.3414 77.7191C38.5034 75.1785 38.5022 75.1799 40.186 75.4252C41.4769 75.6131 41.6775 76.0848 41.2035 77.8183C40.6376 79.8877 39.6149 80.8788 38.6454 80.2972C38.2779 80.0767 38.2216 79.5978 38.3414 77.7191ZM40.8898 68.9281C41.7678 68.9578 42.4581 68.7787 42.4546 68.5221C42.453 68.3887 42.0486 68.3443 41.5562 68.4232C41.0637 68.5022 40.4446 68.4373 40.1804 68.2787C39.9162 68.1202 39.6466 68.0798 39.5812 68.1888C39.4234 68.4518 40.2265 68.9056 40.8898 68.9281ZM40.6674 67.6908C41.0122 67.7146 41.4104 67.6338 41.5523 67.5114C41.751 67.34 41.6577 67.2997 41.1473 67.3358C40.7826 67.3614 40.2809 67.2607 40.0326 67.1117C39.7844 66.9628 39.5277 66.9301 39.4623 67.0391C39.2998 67.3099 39.9077 67.6388 40.6674 67.6908ZM57.6473 55.7779C57.7139 55.4841 57.8953 54.8956 58.0509 54.47C58.2796 53.8439 58.2624 53.7472 57.9603 53.9641C57.5218 54.2785 57.0257 56.0115 57.323 56.1899C57.4455 56.2634 57.5747 56.0993 57.6473 55.7779ZM57.0786 53.9532C57.7389 53.0468 57.8439 52.7842 57.5128 52.867C57.1554 52.9563 56.1781 54.3559 56.3036 54.5988C56.3798 54.7468 56.6871 54.4907 57.0786 53.9532ZM62.8526 56.0706C62.5033 54.4091 62.5603 54.3554 64.3675 54.6429C66.2933 54.949 68.2274 56.0426 67.9889 56.6904C67.6795 57.5308 64.6202 57.8717 63.4864 57.1919C63.2357 57.0418 62.9507 56.537 62.8526 56.0706Z" fill="#3A405A"/>
</svg>
